<?xml version="1.0" encoding="utf-8"?>
<!-- adapted from Yubico's website, all rights belong to Yubico -->
<!-- Generator: Adobe Illustrator 25.0.1, SVG Export Plug-In . SVG Version: 6.00 Build 0)  -->
<svg version="1.1" id="Layer_1" xmlns="http://www.w3.org/2000/svg" xmlns:xlink="http://www.w3.org/1999/xlink" x="0px" y="0px"
	 viewBox="0 0 176 176" style="enable-background:new 0 0 176 176;" xml:space="preserve">
<style type="text/css">
	.st0{fill:#859900;}
	.st1{fill-rule:evenodd;clip-rule:evenodd;fill:#859900;}
</style>
<g id="icon_art">
	<path class="st0" d="M112.5,136.1H63.5c-7.7,0-13.9-6.2-14-13.8V14.5c0.1-7.7,6.3-13.9,14-13.9h49.1c7.7,0,13.9,6.2,14,13.9v107.7
		C126.4,129.9,120.2,136.1,112.5,136.1z M63.5,7.7c-3.8,0-6.9,3-7,6.9v107.7c0.1,3.8,3.2,6.9,7,6.9h49.1c3.8,0,6.9-3,7-6.8V14.5
		c-0.1-3.8-3.2-6.9-7-6.8L63.5,7.7z"/>
	<path class="st0" d="M109.3,175.3H66.7c-1.9,0-3.5-1.6-3.5-3.5v-33.5h7v30h35.6v-30h7v33.5C112.8,173.8,111.2,175.3,109.3,175.3z"
		/>
	<path class="st0" d="M88,91.8c-11.2-0.2-20.1-9.4-19.9-20.5s9.4-20.1,20.5-19.9c11,0.2,19.9,9.2,19.9,20.2
		C108.4,82.8,99.3,91.9,88,91.8z M88,58.3c-7.3,0.2-13.1,6.2-12.9,13.5c0.2,7.3,6.2,13.1,13.5,12.9c7.2-0.2,12.9-6,12.9-13.2
		C101.5,64.2,95.4,58.3,88,58.3z"/>
	<path class="st1" d="M94.2,27.5c0.1,3.4-2.7,6.2-6.1,6.3c-3.4,0.1-6.2-2.7-6.3-6.1s2.7-6.2,6.1-6.3c0,0,0.1,0,0.1,0
		C91.4,21.4,94.2,24.1,94.2,27.5C94.2,27.5,94.2,27.5,94.2,27.5"/>
	<path class="st0" d="M88,34.1c-3.6-0.1-6.5-3.1-6.5-6.7c0.1-3.6,3.1-6.5,6.7-6.5c3.6,0.1,6.5,3,6.5,6.6
		C94.7,31.2,91.7,34.1,88,34.1z M88,22c-3.1,0.1-5.5,2.6-5.5,5.7s2.6,5.5,5.7,5.5c3-0.1,5.5-2.5,5.5-5.6C93.7,24.5,91.1,22,88,22z"
		/>
</g>
</svg>
